<?xml version="1.0" encoding="UTF-8" standalone="no"?>
<svg width="18px" height="18px" viewBox="0 0 18 18" version="1.1" xmlns="http://www.w3.org/2000/svg" xmlns:xlink="http://www.w3.org/1999/xlink" xmlns:sketch="http://www.bohemiancoding.com/sketch/ns">
    <!-- Generator: Sketch 3.0.4 (8053) - http://www.bohemiancoding.com/sketch -->
    <title>calendar</title>
    <desc>Created with Sketch.</desc>
    <defs></defs>
    <g id="Page-1" stroke="none" stroke-width="1" fill="none" fill-rule="evenodd" sketch:type="MSPage">
        <g id="calendar" sketch:type="MSArtboardGroup" fill="#8D827B">
            <path d="M16.875,0 L15.75,0 L15.75,3.37536 L11.25,3.37536 L11.25,0 L6.75,0 L6.75,3.37536 L2.25,3.37536 L2.25,0 L1.125,0 C0.50346,0 0,0.50454 0,1.125 L0,16.87536 C0,17.4969 0.50346,18 1.125,18 L16.875,18 C17.4969,18 18,17.4969 18,16.87536 L18,1.125 C18,0.50454 17.4969,0 16.875,0 Z M15.75,15.75 L2.25,15.75 L2.25,5.625 L15.75,5.625 L15.75,15.75 Z M6.75,7.87536 L4.5,7.87536 L4.5,10.125 L6.75,10.125 L6.75,7.87536 L6.75,7.87536 Z M10.125,11.25 L7.875,11.25 L7.875,13.5 L10.125,13.5 L10.125,11.25 L10.125,11.25 Z M13.5,11.25 L11.25,11.25 L11.25,13.5 L13.5,13.5 L13.5,11.25 L13.5,11.25 Z M13.5,7.87536 L11.25,7.87536 L11.25,10.125 L13.5,10.125 L13.5,7.87536 L13.5,7.87536 Z M5.625,0 L3.375,0 L3.375,2.25 L5.625,2.25 L5.625,0 L5.625,0 Z M14.625,0 L12.375,0 L12.375,2.25 L14.625,2.25 L14.625,0 L14.625,0 Z M10.125,7.87536 L7.875,7.87536 L7.875,10.125 L10.125,10.125 L10.125,7.87536 L10.125,7.87536 Z M6.75,11.25 L4.5,11.25 L4.5,13.5 L6.75,13.5 L6.75,11.25 L6.75,11.25 Z" sketch:type="MSShapeGroup"></path>
        </g>
    </g>
</svg>